<svg width="755" height="369" viewBox="0 0 755 369" fill="none" xmlns="http://www.w3.org/2000/svg">
<path d="M748.975 11.076C750.198 8.13631 751.226 5.6657 752.007 3.7917C750.457 5.22031 748.414 7.10513 745.983 9.34959C740.227 14.6648 732.295 21.9962 723.577 30.0604C714.858 38.1327 706.927 45.4803 701.17 50.8179C698.292 53.4869 695.958 55.653 694.342 57.1559C693.705 57.7477 693.18 58.2363 692.777 58.6122C692.842 58.6502 692.91 58.6897 692.981 58.7306C693.837 59.2281 695.066 59.932 696.545 60.774C699.503 62.4575 703.454 64.688 707.41 66.9114C711.367 69.1347 715.328 71.3499 718.307 73.0028C719.797 73.8295 721.039 74.5144 721.911 74.989C722.062 75.071 722.201 75.1464 722.328 75.215C722.538 74.712 722.825 74.0259 723.18 73.1742C723.99 71.2298 725.158 68.4235 726.597 64.9635C729.475 58.0437 733.437 48.5102 737.788 38.0311C742.131 27.5513 746.093 18.0088 748.975 11.076Z" stroke="#6EC1E4" stroke-width="2"/>
<path d="M663.724 46.8919L663.725 46.892L677.086 51.1022L714.857 25.5023L714.857 25.5021C730.568 14.86 739.972 8.48949 745.541 4.70631C743.636 5.49774 741.456 6.40367 739.04 7.4079C730.484 10.964 718.97 15.7524 706.224 21.0532L702.615 22.554C679.108 32.3302 658.945 40.7103 652.579 43.3498C654.462 43.9754 657.831 45.0369 663.724 46.8919Z" stroke="#6EC1E4" stroke-width="2"/>
<path d="M683.207 73.7691L683.233 73.846V74.0117C683.233 73.9775 683.232 73.9094 683.215 73.8225L683.215 73.8236L683.216 73.8281L683.216 73.8266L683.214 73.8161C683.213 73.8119 683.211 73.8016 683.208 73.7882L683.208 73.7876C683.206 73.7808 683.197 73.7395 683.18 73.6892L683.207 73.7691ZM681.142 73.4498C681.084 73.0283 681.002 72.4326 680.902 71.7042L680.891 79.1705L681.961 81.3838C682.221 81.912 682.469 82.3941 682.678 82.7752C682.806 82.6768 682.948 82.567 683.104 82.4464C683.868 81.8538 684.93 81.0147 686.176 80.021C688.668 78.0344 691.886 75.4377 694.904 72.9757C697.693 70.6891 699.324 69.3462 700.242 68.5604C700.269 68.5373 700.296 68.5147 700.322 68.4927C700.092 68.3753 699.835 68.2435 699.551 68.0991C698.357 67.4902 696.719 66.6601 694.921 65.7519C692.747 64.6639 691.114 63.8631 690.013 63.3496C689.665 63.1872 689.376 63.0565 689.143 62.9557C688.98 63.2596 688.771 63.6515 688.527 64.1134C687.931 65.2435 687.13 66.7834 686.269 68.4591C685.406 70.1397 684.618 71.6569 684.046 72.7487C683.76 73.2942 683.526 73.7353 683.364 74.0382C683.283 74.1887 683.218 74.3093 683.171 74.3926C683.149 74.4321 683.126 74.4731 683.105 74.5069L683.105 74.5077C683.098 74.5193 683.075 74.5565 683.046 74.5964C683.038 74.6085 683.022 74.6292 683.002 74.6537C682.988 74.6704 682.941 74.7258 682.87 74.7843C682.836 74.8123 682.759 74.8722 682.647 74.9229C682.551 74.9667 682.289 75.0672 681.961 74.9746C681.579 74.8665 681.384 74.5804 681.305 74.3844C681.289 74.3427 681.276 74.3024 681.266 74.2646C681.262 74.2479 681.259 74.2362 681.258 74.2323L681.258 74.2315C681.254 74.2164 681.252 74.204 681.251 74.1971C681.248 74.183 681.246 74.1704 681.244 74.1626C681.242 74.1461 681.239 74.1276 681.236 74.1099C681.23 74.0735 681.223 74.0241 681.215 73.964C681.197 73.8431 681.173 73.6694 681.142 73.4498Z" stroke="#6EC1E4" stroke-width="2"/>
<path d="M679.5 85.9999C649.5 133 625.283 154.253 578.697 183.64C556.976 197.342 533.918 209.452 510.55 220.09C493.768 227.729 476.363 234.257 457.832 235.743C431.467 237.857 404.276 228.141 379.677 219.699C339.55 205.927 296.773 169.737 299.678 123.263C301.876 88.0925 323.956 55.4304 356.868 41.6984C369.833 36.2888 395.015 34.5884 409 36.4433C427.838 38.9418 434.131 40.0103 451.5 48C471.645 57.2668 486.061 73.4463 494.617 93.466C511.902 133.91 497.509 181.224 475.609 217.239C461.438 240.545 443.491 262.995 422.947 280.97C410.783 291.614 398.456 302.947 384.5 311C372.416 317.973 359.146 323.133 345.687 327.259C317.508 335.897 284.661 334.073 256.016 328.768C236.451 325.145 218 322.208 199 313.5C187 308 171.542 293.062 162.5 279.5C152.596 264.644 145.033 243.595 144.71 225.345C144.303 202.32 154.466 172.068 179.5 164.5C199.579 158.43 224.874 161.111 241.425 172.795C258.396 184.774 268.068 202.715 274.241 222.158C286.916 262.086 285.131 302.828 252.103 332.29C225.013 356.455 185.762 366.207 150.133 367.51C102.731 369.245 47.6886 360.996 1.5 351" stroke="#6EC1E4" stroke-width="2" stroke-linecap="round"/>
</svg>
