<svg width="94" height="658" viewBox="0 0 94 658" fill="none" xmlns="http://www.w3.org/2000/svg">
<path d="M45.5 657.5V301.202C45.5 298.428 42.7465 296.496 40.1388 297.44L4.04994 310.501C0.459406 311.8 0.557332 316.912 4.195 318.073L14.3176 321.303C15.6695 321.735 16.6916 322.85 17.0036 324.235L21.5872 344.574C22.458 348.438 27.8133 348.822 29.2262 345.122L33.2575 334.564C34.1585 332.204 36.9945 331.26 39.1303 332.609L59.583 345.526C61.6472 346.83 64.3875 345.996 65.3763 343.764L92.5959 282.314C94.0382 279.058 90.8265 275.682 87.5027 276.961L49.9359 291.409C47.3159 292.417 44.5 290.483 44.5 287.676V0" stroke="#DC5326"/>
</svg>
