<svg width="177" height="72" viewBox="0 0 177 72" fill="none" xmlns="http://www.w3.org/2000/svg">
<g id="Group">
<path id="Vector" d="M51.0602 0.0344391C43.0899 0.362209 35.5914 4.28889 30.6362 10.7132C27.4703 14.8234 25.5039 19.8186 25.0451 24.9384C24.9534 25.9282 24.9337 26.8788 24.9599 29.9008L24.973 32.4115H51.4469H77.9143L78.0257 32.9818C78.6943 36.4365 80.4181 40.3829 82.5746 43.3852C84.3378 45.8369 86.8088 48.269 89.2799 49.9931C94.15 53.3822 100.246 55.1456 106.047 54.8375C108.498 54.7064 110.307 54.4114 112.522 53.7821C114.666 53.179 116.77 52.2678 118.861 51.0354C119.975 50.3733 120.473 50.0389 121.522 49.2392L122.341 48.6099L122.374 52.7004L122.407 56.7975L123.75 56.024C126.457 54.4704 128.889 52.8971 131.472 51.0288L132.337 50.406V25.3448V0.2901H127.355H122.374L122.361 3.2728L122.341 6.26206L121.62 5.6983C117.864 2.77459 113.145 0.814529 108.445 0.224545C106.492 -0.024559 103.484 -0.0507812 101.753 0.158993C97.9975 0.611313 94.3466 1.8175 91.207 3.6399C85.4455 6.9766 80.9753 12.4241 78.8844 18.6583C78.7664 19.0188 78.655 19.3204 78.6419 19.3401C78.6222 19.3532 78.5632 19.1958 78.4977 18.9861C77.8487 16.908 76.6558 14.4235 75.3383 12.4176C73.1688 9.11365 70.3569 6.36039 66.9092 4.15778C64.6675 2.73526 61.6327 1.43729 59.024 0.788311C57.4837 0.408096 55.5435 0.113106 54.1736 0.0606613C53.6689 0.0409966 53.02 0.0147743 52.7316 0.00166321C52.4432 -0.00489426 51.6895 0.00821686 51.0602 0.0344391ZM53.6558 9.99207C57.6082 10.3067 61.0428 11.7686 64.0383 14.417C65.1722 15.4134 66.5224 17.0391 67.309 18.3371C67.7809 19.1237 68.574 20.7888 68.8624 21.5951C68.9935 21.9753 69.1181 22.3228 69.1312 22.3621C69.1574 22.4276 65.7883 22.4473 52.4039 22.4473H35.6439L35.6897 22.231C35.8864 21.3198 36.9613 19.0647 37.8069 17.793C38.5475 16.6786 39.2227 15.8788 40.2517 14.8758C41.5692 13.5975 42.7621 12.7388 44.3877 11.8931C47.2323 10.4182 50.5162 9.74297 53.6558 9.99207ZM106.551 10.0249C110.707 10.4575 114.292 12.1554 117.216 15.0659C119.916 17.7537 121.594 21.0969 122.184 24.9384C122.381 26.2167 122.4 28.6487 122.223 29.7893C121.771 32.6934 120.821 35.132 119.247 37.387C115.19 43.2082 108.085 46.0139 101.203 44.5127C96.3589 43.4573 92.2491 40.4615 89.7387 36.135C88.5589 34.1093 87.7396 31.5593 87.4971 29.1797C87.3988 28.1571 87.4512 25.5742 87.5954 24.7417C88.0411 22.113 88.9456 19.8252 90.3549 17.7274C91.751 15.6559 93.7501 13.7352 95.7952 12.5028C99.079 10.5231 102.887 9.64464 106.551 10.0249Z" fill="white"/>
<path id="Vector_2" d="M0 18.0683C0 28.7601 0.0262183 35.1385 0.0655457 35.722C0.589911 42.9591 4.10972 49.3441 9.9695 53.7165C12.8207 55.8404 16.216 57.3482 19.7489 58.0365C21.8726 58.456 21.9447 58.456 29.7709 58.4823L36.9022 58.5085L36.9153 54.3065L36.935 50.111L37.3742 50.406C37.9575 50.7928 39.3799 51.6122 40.1664 52.0055C43.1225 53.4871 46.3343 54.3917 49.9786 54.7719C51.2568 54.9096 54.0818 54.8768 55.4713 54.7064C62.1767 53.9066 67.9512 50.996 72.4739 46.145C74.3026 44.1784 75.7512 42.0807 77.0031 39.5831C77.3046 38.9865 77.8814 37.6492 77.8552 37.623C77.8421 37.6034 70.4748 34.6534 68.9344 34.0438L68.6264 33.9192L68.5149 34.2011C68.2528 34.8763 67.44 36.3709 66.9287 37.1379C64.0447 41.4317 59.5876 44.1587 54.3702 44.8077C53.2756 44.9454 50.929 44.9126 49.8475 44.7422C47.9074 44.4406 46.2491 43.9227 44.5711 43.0902C41.7198 41.6742 39.2881 39.4782 37.5905 36.7708C37.2038 36.1612 36.1812 34.1487 36.1812 33.9979C36.1812 33.9586 36.155 33.9192 36.1157 33.9192C36.0567 33.9192 26.9393 37.5181 26.8869 37.5575C26.8541 37.5837 27.4571 38.9603 27.8242 39.688C28.827 41.6808 30.1772 43.713 31.5996 45.3584C32.1961 46.0467 33.7954 47.6528 34.4246 48.1903L34.7917 48.505L29.3776 48.5246C23.9176 48.5443 23.177 48.5246 21.8857 48.3017C20.2864 48.0264 18.379 47.3053 16.9436 46.4269C13.037 44.0342 10.4939 39.9895 10.0285 35.4335C9.98261 34.9812 9.96295 29.1862 9.96295 18.0486V1.33894H4.98147H0V18.0683Z" fill="white"/>
<path id="Vector_3" d="M163.93 21.7983C157.1 28.262 151.503 33.5653 151.49 33.5915C151.47 33.6505 163.858 40.7631 163.904 40.7237C163.917 40.7041 166.716 33.8275 170.124 25.4366C173.526 17.0457 176.331 10.156 176.351 10.1232C176.377 10.0839 176.384 10.0576 176.371 10.0576C176.358 10.0576 170.76 15.3413 163.93 21.7983Z" fill="#DC5326"/>
<path id="Vector_4" d="M155.835 18.7173C144.731 23.4372 135.548 27.3376 135.43 27.3835C135.221 27.4687 135.378 27.5212 140.635 29.2125L146.049 30.9562L161 20.5987C174.653 11.1458 176.147 10.1101 176.056 10.1297C176.036 10.1297 166.938 13.9974 155.835 18.7173Z" fill="#DC5326"/>
<path id="Vector_5" d="M147.092 37.3739L147.085 41.8447L147.544 42.8149C147.799 43.3459 148.035 43.7785 148.075 43.7654C148.166 43.7458 150.847 41.5563 153.213 39.5831C155.396 37.7541 155.783 37.4198 155.737 37.3739C155.717 37.3543 154.557 36.7512 153.148 36.0235C151.444 35.1516 150.572 34.7321 150.526 34.778C150.493 34.8108 149.91 35.9383 149.235 37.2821C148.56 38.626 148.003 39.7076 148.003 39.688C147.996 39.6683 147.793 38.1343 147.544 36.2792L147.098 32.9031L147.092 37.3739Z" fill="#DC5326"/>
<path id="Vector_6" d="M144.528 45.0437C142.706 47.148 139.691 50.1176 137.233 52.2285C129.315 59.0264 119.667 64.487 108.839 68.2892C104.795 69.7117 100.292 70.9638 96.5489 71.7111C95.7755 71.8684 95.1855 71.9929 95.238 71.9995C95.2904 72.0061 95.8672 71.9471 96.5161 71.8749C102.985 71.1407 109.848 69.4363 115.885 67.0567C126.136 63.0252 135.49 56.8697 143.086 49.154C143.899 48.328 144.804 47.384 145.092 47.0628C145.833 46.2237 146.954 44.8733 146.954 44.8143C146.954 44.7619 145.689 44.0014 145.544 43.9621C145.512 43.9555 145.053 44.4406 144.528 45.0437Z" fill="#DC5326"/>
</g>
</svg>
