<svg width="755" height="370" viewBox="0 0 755 370" fill="none" xmlns="http://www.w3.org/2000/svg">
<path d="M1 351.5C47.1886 361.496 102.231 369.745 149.633 368.01C185.262 366.707 224.513 356.955 251.603 332.79C284.631 303.328 286.416 262.586 273.741 222.658C267.568 203.215 257.896 185.274 240.925 173.295C224.374 161.611 199.079 158.93 179 165C153.966 172.568 143.803 202.82 144.21 225.845C144.533 244.095 152.096 265.144 162 280C171.042 293.562 186.5 308.5 198.5 314C217.5 322.708 235.951 325.645 255.516 329.268C284.161 334.573 317.008 336.397 345.187 327.759C358.646 323.633 371.916 318.473 384 311.5C397.956 303.447 410.283 292.114 422.447 281.47C442.991 263.495 460.938 241.045 475.109 217.739C497.009 181.724 511.402 134.41 494.117 93.966C485.561 73.9463 471.145 57.7668 451 48.5C433.631 40.5103 427.338 39.4418 408.5 36.9433C394.515 35.0884 369.333 36.7888 356.368 42.1984C323.456 55.9304 301.376 88.5925 299.178 123.763C296.273 170.237 339.05 206.427 379.177 220.199C403.776 228.641 430.967 238.357 457.332 236.243C475.863 234.757 493.268 228.229 510.05 220.59C533.418 209.952 556.476 197.842 578.197 184.14C624.783 154.753 649 133.5 679 86.4999L677 51.5L651.5 43.5L752.5 2L722 75.5L692.5 59.5M692.5 59.5L679 87L703.5 66L692.5 59.5ZM692.5 59.5L753 2L677.5 51.5" stroke="#6EC1E4" stroke-width="2" stroke-linecap="round"/>
</svg>
