<svg width="756" height="370" viewBox="0 0 756 370" fill="none" xmlns="http://www.w3.org/2000/svg">
<path d="M1.5 352C47.6886 361.996 102.731 370.245 150.133 368.51C185.762 367.207 225.013 357.455 252.103 333.29C285.131 303.828 286.916 263.086 274.241 223.158C268.068 203.715 258.396 185.774 241.425 173.795C224.874 162.111 199.579 159.43 179.5 165.5C154.466 173.068 144.303 203.32 144.71 226.345C145.033 244.595 152.596 265.644 162.5 280.5C171.542 294.062 187 309 199 314.5C218 323.208 236.451 326.145 256.016 329.768C284.661 335.073 317.508 336.897 345.687 328.259C359.146 324.133 372.416 318.973 384.5 312C398.456 303.947 410.783 292.614 422.947 281.97C443.491 263.995 461.438 241.545 475.609 218.239C497.509 182.224 511.902 134.91 494.617 94.466C486.061 74.4463 471.645 58.2668 451.5 49C434.131 41.0103 427.838 39.9418 409 37.4433C395.015 35.5884 369.833 37.2888 356.868 42.6984C323.956 56.4304 301.876 89.0925 299.678 124.263C296.773 170.737 339.55 206.927 379.677 220.699C404.276 229.141 431.467 238.857 457.832 236.743C476.363 235.257 493.768 228.729 510.55 221.09C533.918 210.452 556.976 198.342 578.697 184.64C625.283 155.253 682.5 83.5 682.5 83.5L677.5 51.5L652.5 44L754 2L722.5 76.5L693 59.5M693 59.5L752.5 3.5L676 52.5L682 84.5L693 59.5Z" stroke="#6EC1E4" stroke-width="2" stroke-linecap="round"/>
</svg>
