<svg width="684" height="335" viewBox="0 0 684 335" fill="none" xmlns="http://www.w3.org/2000/svg">
<path d="M682.5 48.5C682.5 48.5 625.283 120.253 578.697 149.64C556.976 163.342 533.918 175.452 510.55 186.09C493.768 193.729 476.363 200.257 457.832 201.743C431.467 203.857 404.276 194.141 379.677 185.699C339.55 171.927 296.773 135.737 299.678 89.2632C301.876 54.0925 323.956 21.4304 356.868 7.69835C369.833 2.2888 395.015 0.58843 409 2.44332C427.838 4.9418 434.131 6.01028 451.5 14C471.645 23.2668 486.061 39.4463 494.617 59.466C511.902 99.9102 497.509 147.224 475.609 183.239C461.438 206.545 443.491 228.995 422.947 246.97C410.783 257.614 398.456 268.947 384.5 277C372.416 283.973 359.146 289.133 345.687 293.259C317.508 301.897 284.661 300.073 256.016 294.768C236.451 291.145 218 288.208 199 279.5C187 274 171.542 259.062 162.5 245.5C152.596 230.644 145.033 209.595 144.71 191.345C144.303 168.32 154.466 138.068 179.5 130.5C199.579 124.43 224.874 127.111 241.425 138.795C258.396 150.774 268.068 168.715 274.241 188.158C286.916 228.086 285.131 268.828 252.103 298.29C225.013 322.455 185.762 332.207 150.133 333.51C102.731 335.245 47.6886 326.996 1.5 317" stroke="#6EC1E4" stroke-width="2" stroke-linecap="round"/>
</svg>
