<svg width="64" height="49" viewBox="0 0 64 49" fill="none" xmlns="http://www.w3.org/2000/svg">
<path d="M45.1343 18.0456C45.0208 18.1507 44.9186 18.2453 44.8282 18.3291C45.0825 18.4752 45.4112 18.6624 45.7934 18.879C46.724 19.4062 47.9672 20.1049 49.2125 20.8014C50.4578 21.498 51.7043 22.1918 52.6415 22.7095C53.0835 22.9537 53.4559 23.1582 53.7266 23.3051C53.7801 23.1775 53.8432 23.0268 53.9154 22.8544C54.1705 22.2452 54.5382 21.366 54.9911 20.2819C55.897 18.1139 57.144 15.1269 58.5134 11.8437C59.8803 8.56007 61.1274 5.57016 62.0348 3.3979C62.2674 2.84117 62.4776 2.33811 62.6619 1.89757C62.2895 2.23946 61.8625 2.63178 61.3887 3.06734C59.5769 4.73262 57.0804 7.02957 54.3362 9.55616C51.592 12.0854 49.0954 14.3876 47.2836 16.0599C46.3776 16.8961 45.643 17.5748 45.1343 18.0456Z" stroke="#CC5C35"/>
<path d="M51.8627 8.13953C55.6025 5.45255 58.1823 3.59894 59.9534 2.32478C59.8104 2.38781 59.6644 2.45218 59.5155 2.51783C56.8834 3.6782 53.3427 5.2401 49.4226 6.96931L48.2936 7.46735C41.4904 10.4684 35.5915 13.0691 33.2748 14.0886C33.8937 14.3007 34.8454 14.6187 36.2942 15.1024L36.2943 15.1024L40.3103 16.4447L51.8626 8.13962L51.8627 8.13953Z" stroke="#CC5C35"/>
<path d="M41.8243 26.0011C41.8662 26.0903 41.9071 26.1752 41.9457 26.2535C42.1823 26.0606 42.4996 25.798 42.8682 25.4903C43.6569 24.8318 44.6757 23.971 45.6312 23.1548C46.3807 22.5113 46.8647 22.0943 47.171 21.8244C47.1595 21.8182 47.1479 21.8121 47.1362 21.8058C46.7582 21.604 46.2397 21.3289 45.6704 21.0278C44.9822 20.667 44.467 20.4025 44.1209 20.2335C44.0837 20.2154 44.0489 20.1985 44.0163 20.1829C43.9818 20.2507 43.9436 20.3261 43.9022 20.4084C43.7136 20.7826 43.46 21.2929 43.1876 21.8483C42.9141 22.4061 42.6643 22.9097 42.4827 23.2724C42.392 23.4535 42.3179 23.6003 42.2661 23.7014C42.2404 23.7515 42.2192 23.7925 42.2038 23.8213C42.1967 23.8347 42.1882 23.8504 42.1802 23.8642L42.18 23.8646C42.1773 23.8692 42.1674 23.8865 42.1541 23.9055C42.1501 23.9114 42.1427 23.9217 42.1329 23.9339C42.1264 23.9421 42.1037 23.9703 42.0687 24.0004C42.0522 24.0146 42.0137 24.0462 41.957 24.0732C41.9082 24.0964 41.7714 24.1518 41.6002 24.1011C41.564 24.0904 41.5314 24.0765 41.5019 24.0605L41.5002 25.2989L41.8243 26.0011Z" stroke="#CC5C35"/>
<path d="M33.618 33.8672L33.6179 33.8673C27.9175 38.7114 21.1009 42.6922 13.4923 45.6283C14.4094 45.323 15.3102 44.9982 16.1886 44.6555L16.189 44.6553C24.2521 41.5167 31.6077 36.7249 37.5797 30.7213C38.2228 30.0745 38.9306 29.3431 39.1524 29.0988C39.4416 28.7745 39.8064 28.3498 40.099 28.0004C40.1619 27.9252 40.2212 27.8539 40.2753 27.7882C40.2597 27.7788 40.2439 27.7693 40.228 27.7599C40.1399 27.7072 40.0508 27.6552 39.97 27.6092C39.8314 27.7556 39.6487 27.956 39.4531 28.1787C37.9899 29.8511 35.582 32.1978 33.618 33.8672Z" fill="#DC5326" stroke="#CC5C35"/>
</svg>
