<svg xmlns="http://www.w3.org/2000/svg" width="80" height="78" viewBox="0 0 80 78" fill="none"> <path d="M61.6819 54.8567C72.0788 40.0271 69.4013 15.568 44.5056 20.4453C34.1655 22.471 27.5571 33.5502 25.7723 43.7028C25.2482 46.684 25.38 56.2905 31.6855 57.2793C37.991 58.2682 43.7541 46.8705 44.9937 42.3312C46.9727 35.0848 45.6584 25.6909 39.4737 20.9412C25.6621 10.3342 5.89096 28.4344 2.27506 41.9361" stroke="#DC5326" stroke-width="1.5" stroke-linecap="round"></path> <path d="M67.872 52.1288C64.2093 54.2877 63.872 54.1912 62.0957 55.0622C61.787 55.2135 61.4156 55.0232 61.3684 54.6827C61.0294 52.2396 61.1246 51.8695 60.8058 48.034" stroke="#DC5326" stroke-width="1.5" stroke-linecap="round"></path> </svg>